<?xml version="1.0" encoding="UTF-8"?><svg id="uuid-8fdf0c39-d6f5-4c93-8662-9ef52957965b" xmlns="http://www.w3.org/2000/svg" viewBox="0 0 99.32 15"><g id="uuid-a707a666-fe27-4570-90df-c1f9375d4880"><path d="M28.99,11.8h2.38l2.22-8.29h-2.38l-2.22,8.29ZM17.98,8.84c-.43,1.06-1.48,1.86-2.34,1.79-.86-.07-1.21-.98-.78-2.03.43-1.05,1.48-1.86,2.34-1.79.86.07,1.21.98.78,2.03M19.34,3.51l-.81,2.97c-.42-.55-1.12-.88-1.97-.88-1.75,0-3.54,1.39-4,3.1-.46,1.71.59,3.1,2.34,3.1.86,0,1.73-.26,2.45-.81l-.24.81h2.38l2.24-8.29h-2.38ZM39.4,6.8h-1.65l.44-1.6h1.52c.5,0,1.18.05,1.15.65-.03.64-.52.96-1.46.96M38.65,10.11h-1.78l.5-1.87h1.62c.6,0,1.36.06,1.32.82-.05.89-.83,1.05-1.65,1.05M43.23,5.31c.05-.9-.28-1.8-2.71-1.8h-4.28l-2.21,8.29h4.39c2.63-.01,4.14-1.1,4.23-2.77.04-.74-.4-1.44-1.19-1.62v-.02c1.04-.21,1.72-.99,1.77-2.08M10.67,5.82c-1.64-.24-2.89.39-3.2.64l.13-.49h-2.38l-1.57,5.82h2.38l.98-3.61c.16-.65,1.1-1.27,1.79-1.23.51.03.87.43.78.88l-1.06,3.95h2.38l1.06-3.93c.31-1.15-.41-1.91-1.29-2.04M3.05,5.19c.76-.02,1.46-.49,1.58-1.06.05-.24-.01-.45-.15-.62-.2-.24-.56-.39-1-.38-.41,0-.81.16-1.11.38-.25.18-.42.42-.47.68-.12.57.4,1.02,1.15,1M1.57,5.98l-1.57,5.82h2.38l1.57-5.82H1.57ZM26.66,8.13h-2.81c.34-.78.95-1.42,1.88-1.42s1.16.76.93,1.42M25.61,5.6c-2.11,0-4.07,1.29-4.39,3.12-.32,1.83,1.16,3.16,3.28,3.16,1.43,0,2.65-.55,3.78-1.83h-1.32c-.59.58-1.36.85-2.07.84-.94-.01-1.48-.84-1.28-1.9h5.2c.45-2.01-.94-3.38-3.19-3.38" fill="#e6313f"/><path d="M85.95,11.64h1.37v-5.63h-1.37v5.63ZM96.22,9.25l.41-1.36.43,1.36h-.84ZM97.78,6.59c-.36-1.16-1.96-1.14-2.3,0l-1.16,3.79-1.11-3.92c-.13-.87-1.07-.9-1.33,0l-.9,1.93-.87-1.93c-.26-.87-1.14-.86-1.37,0l-1.41,5.18h1.41l.8-2.72s1.09,2.52,1.09,2.46c.17.39.51.34.7,0l1.1-2.46.78,2.72h2.27l.34-1.1h1.6l.36,1.1h1.54l-1.54-5.05ZM84.58,6.01h-1.39v5.63h2.53v-1.32h-1.14v-4.32ZM71.77,6.01v1.53h.94v4.1h1.54v-4.1h.6l.93-1.53h-4.01ZM79.41,8.92c0,2.72,2.74,2.93,2.74,2.93l.76-1.22s-2.03.23-2.03-1.72c0-1.79,2.03-1.63,2.03-1.63v-1.29s-3.5-.33-3.5,2.92M77.77,9.98s-.07.46-.56.46-.54-.46-.54-.46v-2.3s.09-.46.54-.46.56.46.56.46v2.3ZM77.21,5.81c-1.5,0-2.01,1.33-2.01,1.87v2.3c0,.59.37,1.87,2.01,1.87s2.03-1.29,2.03-1.87v-2.3c0-.54-.56-1.87-2.03-1.87M56.28,10.22c-.74-.32-1.5-.56-2.32-.48l-.02-.52-1.19,1.28v.75l1.19.35v-.58c.06-.06.12-.05.19-.06,1.45-.09,2.47.91,3.88.89.63,0,1.26-.17,1.75-.55v-1.19c-.32.19-.69.32-1.05.43-.84.24-1.71.01-2.43-.33M56.29,6.15c-.74-.32-1.5-.57-2.32-.48l-.02-.52-1.18,1.28v.75l1.18.35v-.58c.06-.05.12-.04.19-.05,1.45-.09,2.47.9,3.88.89.63,0,1.26-.16,1.75-.55v-1.19c-.33.19-.69.32-1.05.43-.85.24-1.71,0-2.43-.33M64.62,9.25l.43-1.36.41,1.36h-.84ZM63.87,6.59l-1.53,5.05h1.53l.34-1.1h1.6l.36,1.1h1.56l-1.56-5.05c-.36-1.14-1.96-1.14-2.3,0M69.97,9.77c0,.26-.13.57-.56.57s-.53-.31-.53-.57v-3.76h-1.56v3.88c0,.69.6,1.97,2.09,1.97s2.09-1.29,2.09-1.97v-3.88h-1.53v3.76Z" fill="#2d68ad"/><path d="M58.58,8.57c-.05.06-.11.04-.18.06-1.45.09-2.47-.91-3.88-.9-.63,0-1.26.17-1.75.55v1.19c.32-.2.68-.32,1.05-.44.84-.23,1.7,0,2.43.34.73.31,1.5.56,2.32.47l.02.54,1.19-1.29v-.75l-1.2-.35v.58Z" fill="#e6313f"/><rect x="47.77" width=".45" height="15" fill="#e6313f"/></g></svg>